<?xml version="1.0" encoding="UTF-8" standalone="no"?>
<svg
   xmlns:dc="http://purl.org/dc/elements/1.1/"
   xmlns:cc="http://creativecommons.org/ns#"
   xmlns:rdf="http://www.w3.org/1999/02/22-rdf-syntax-ns#"
   xmlns:svg="http://www.w3.org/2000/svg"
   xmlns="http://www.w3.org/2000/svg"
   id="svg22"
   xml:space="preserve"
   viewBox="0 0 1024 768"
   y="0px"
   x="0px"
   version="1.1"><metadata
     id="metadata28"><rdf:RDF><cc:Work
         rdf:about=""><dc:format>image/svg+xml</dc:format><dc:type
           rdf:resource="http://purl.org/dc/dcmitype/StillImage" /></cc:Work></rdf:RDF></metadata><defs
     id="defs26" /><style
     id="style2">
#fadein{
opacity: 0;
animation:fadeIn 1s ease-in;
animation-fill-mode:forwards;
}

@keyframes fadeIn { from { opacity:0; } to { opacity:1; } }
</style><g
     style="opacity:0"
     id="fadein"><g
       style="stroke-width:0;stroke-miterlimit:2"
       transform="matrix(1.0489,0,0,1.0489,-25.061,-18.797)"
       stroke-miterlimit="2"
       id="logo-group"><path
         class="c1"
         d="m 298.82,409.56 c 0,3.241 -2.6099,5.9412 -5.9412,5.9412 -3.3301,0 -5.9399,-2.7002 -5.9399,-5.9412 v -45.094 h -13.052 c -3.2398,0 -5.9399,-2.7002 -5.9399,-6.0303 0,-3.2397 2.7002,-5.9399 5.9399,-5.9399 h 18.992 c 3.6011,0 5.9412,2.7002 5.9412,5.9399 z"
         style="font-variant-ligatures:normal;fill:#495f75"
         id="path12" /><path
         class="c3"
         d="m 317.81,358.44 c 0,3.3301 -2.7002,6.0303 -5.9412,6.0303 -3.3301,0 -6.0303,-2.7002 -6.0303,-6.0303 0,-3.2397 2.7002,-5.9399 6.0303,-5.9399 3.241,0 5.9412,2.7002 5.9412,5.9399 z"
         style="font-variant-ligatures:normal;fill:#f39604"
         id="path14" /><path
         class="c1"
         d="m 385.81,388.95 c 0,13.591 -8.551,28.173 -27.452,28.173 -16.382,0 -27.452,-11.342 -27.452,-28.173 v -30.513 c 0,-3.2397 2.7002,-5.9399 5.9412,-5.9399 3.3301,0 6.0303,2.7002 6.0303,5.9399 v 30.513 c 0,4.95 1.4392,16.201 15.481,16.201 11.431,0 15.481,-8.3704 15.481,-16.201 v -12.601 c 0,-3.2398 2.7002,-5.9399 6.0315,-5.9399 3.2397,0 5.9399,2.7002 5.9399,5.9399 v 12.601 z"
         style="font-variant-ligatures:normal;fill:#495f75"
         id="path17" /><path
         class="c3"
         d="m 373.84,358.44 c 0,-3.2397 2.7002,-5.9399 6.0315,-5.9399 3.2398,0 5.9399,2.7002 5.9399,5.9399 0,3.3301 -2.7002,6.0303 -5.9399,6.0303 -3.3313,0 -6.0315,-2.7002 -6.0315,-6.0303 z"
         style="font-variant-ligatures:normal;fill:#f39604"
         id="path19" /><path
         class="c1"
         d="m 429.76,409.56 c 0,3.241 -2.6099,5.9412 -5.9412,5.9412 -3.3301,0 -5.9399,-2.7002 -5.9399,-5.9412 v -45.094 h -13.052 c -3.2398,0 -5.9399,-2.7002 -5.9399,-6.0303 0,-3.2397 2.7002,-5.9399 5.9399,-5.9399 h 18.992 c 3.6011,0 5.9412,2.7002 5.9412,5.9399 z"
         style="font-variant-ligatures:normal;fill:#495f75"
         id="path22" /><path
         class="c3"
         d="m 448.75,358.44 c 0,3.3301 -2.7002,6.0303 -5.9412,6.0303 -3.3301,0 -6.0303,-2.7002 -6.0303,-6.0303 0,-3.2397 2.7002,-5.9399 6.0303,-5.9399 3.241,0 5.9412,2.7002 5.9412,5.9399 z"
         style="font-variant-ligatures:normal;fill:#f39604"
         id="path24" /><path
         class="c1"
         d="m 489.18,417.13 c -18.271,0 -33.124,-14.851 -33.124,-33.213 0,-10.261 4.6814,-19.622 12.782,-26.012 2.5195,-1.98 6.3,-1.5308 8.3704,1.0803 1.98,2.5195 1.5295,6.3 -1.0803,8.3704 -5.1306,4.0503 -8.1006,9.9902 -8.1006,16.561 0,11.7 9.4507,21.241 21.152,21.241 11.7,0 21.241,-9.541 21.241,-21.241 0,-6.571 -2.97,-12.511 -8.1909,-16.561 -2.6099,-2.0703 -3.0603,-5.8508 -0.98999,-8.3704 1.98,-2.6111 5.7605,-3.0603 8.3704,-1.0803 8.1006,6.3904 12.782,15.751 12.782,26.012 -2e-5,18.362 -14.941,33.213 -33.213,33.213 z"
         style="font-variant-ligatures:normal;fill:#495f75"
         id="path27" /><path
         class="c3"
         d="m 489.18,350.88 c 3.3301,0 6.0303,2.7002 6.0303,6.0315 0,3.2398 -2.7002,5.9399 -6.0303,5.9399 -3.241,0 -5.9412,-2.7002 -5.9412,-5.9399 0,-3.3313 2.7002,-6.0315 5.9412,-6.0315 z"
         style="font-variant-ligatures:normal;fill:#f39604"
         id="path29" /><path
         class="c1"
         d="m 560.52,409.56 c 0,3.241 -2.6099,5.9412 -5.9412,5.9412 -3.3301,0 -5.9399,-2.7002 -5.9399,-5.9412 v -45.094 h -13.052 c -3.2398,0 -5.9399,-2.7002 -5.9399,-6.0303 0,-3.2397 2.7002,-5.9399 5.9399,-5.9399 h 18.992 c 3.6011,0 5.9412,2.7002 5.9412,5.9399 z"
         style="font-variant-ligatures:normal;fill:#495f75"
         id="path32" /><path
         class="c3"
         d="m 579.51,358.44 c 0,3.3301 -2.7002,6.0303 -5.9412,6.0303 -3.3301,0 -6.0303,-2.7002 -6.0303,-6.0303 0,-3.2397 2.7002,-5.9399 6.0303,-5.9399 3.241,0 5.9412,2.7002 5.9412,5.9399 z"
         style="font-variant-ligatures:normal;fill:#f39604"
         id="path34" /><path
         class="c1"
         d="m 632.24,389.76 -16.02,-33.84 c -0.99,-2.07 -3.15,-3.42 -5.4,-3.42 -2.3401,0 -4.4104,1.3501 -5.4004,3.4204 l -24.302,51.034 c -1.3501,2.97 -0.0897,6.571 2.8802,8.0102 2.97,1.3501 6.4807,0.0904 7.9205,-2.8796 l 5.6708,-11.881 h 30.242 c 2.0703,0 3.8702,-1.0803 4.9506,-2.7002 2.0703,-3.0603 0.4498,-5.6702 -0.54018,-7.7405 z m -29.792,0.17943 8.371,-17.642 8.4607,17.642 z"
         style="font-variant-ligatures:normal;fill:#495f75"
         id="path37" /><path
         class="c3"
         d="m 641.06,409.56 c 0,3.241 -2.7002,5.9412 -6.0303,5.9412 -3.2404,0 -5.9406,-2.7002 -5.9406,-5.9412 0,-3.3301 2.7002,-6.0303 5.9406,-6.0303 3.3301,0 6.0303,2.7002 6.0303,6.0303 z"
         style="font-variant-ligatures:normal;fill:#f39604"
         id="path39" /><path
         class="c1"
         d="m 675.42,415.51 h -12.69 c -3.241,0 -5.9412,-2.7002 -5.9412,-5.9412 v -51.124 c 0,-3.2397 2.7002,-5.9399 5.9412,-5.9399 3.3301,0 6.0303,2.7002 6.0303,5.9399 v 45.094 h 6.6602 c 3.3301,0 5.9412,2.7002 5.9412,6.0303 -1e-5,3.241 -2.6111,5.9412 -5.9412,5.9412 z"
         style="font-variant-ligatures:normal;fill:#495f75"
         id="path42" /><path
         class="c3"
         d="m 687.39,409.56 c 0,-3.3301 2.6099,-6.0303 5.9399,-6.0303 3.3301,0 5.9412,2.7002 5.9412,6.0303 0,3.241 -2.6111,5.9412 -5.9412,5.9412 -3.3301,0 -5.9399,-2.7002 -5.9399,-5.9412 z"
         style="font-variant-ligatures:normal;fill:#f39604"
         id="path44" /><path
         class="c1"
         d="m 754.24,413.89 c -2.3401,2.2498 -6.1206,2.1594 -8.4607,-0.18067 l -20.972,-22.231 v 18.091 c 0,3.241 -2.7002,5.9412 -6.0303,5.9412 -3.241,0 -5.9412,-2.7002 -5.9412,-5.9412 v -51.124 c 0,-3.2397 2.7002,-5.9399 5.9412,-5.9399 3.3301,0 6.0303,2.7002 6.0303,5.9399 v 15.83 l 6.8408,-7.29 c 2.3401,-2.3401 6.1206,-2.4304 8.4607,-0.0903 2.3401,2.3401 2.3401,6.1206 0,8.4607 l -8.0102,7.3804 22.322,22.682 c 2.2498,2.3413 2.1594,6.1206 -0.18067,8.4619 z"
         style="font-variant-ligatures:normal;fill:#495f75"
         id="path47" /><path
         class="c3"
         d="m 748.39,352.5 c 3.3301,0 6.0303,2.7002 6.0303,5.9399 0,3.3301 -2.7002,6.0303 -6.0303,6.0303 -3.241,0 -5.9412,-2.7002 -5.9412,-6.0303 0,-3.2397 2.7002,-5.9399 5.9412,-5.9399 z"
         style="font-variant-ligatures:normal;fill:#f39604"
         id="path49" /></g></g></svg>