<?xml version="1.0" standalone="no"?>
<!DOCTYPE svg PUBLIC "-//W3C//DTD SVG 20010904//EN"
 "http://www.w3.org/TR/2001/REC-SVG-20010904/DTD/svg10.dtd">
<svg version="1.0" xmlns="http://www.w3.org/2000/svg"
 width="500.000000pt" height="500.000000pt" viewBox="0 0 500.000000 500.000000"
 preserveAspectRatio="xMidYMid meet">
<metadata>
Created by potrace 1.14, written by Peter Selinger 2001-2017
</metadata>
<g transform="translate(0.000000,500.000000) scale(0.100000,-0.100000)"
fill="#000000" stroke="none">
<path d="M1917 3366 c-78 -28 -113 -88 -105 -176 6 -60 39 -107 92 -131 35
-16 67 -19 234 -19 l192 0 0 -627 c0 -401 4 -641 10 -665 14 -48 55 -97 97
-114 92 -39 196 13 222 110 9 29 11 253 9 776 -3 693 -4 737 -22 772 -10 21
-35 48 -55 60 -35 22 -44 23 -336 25 -237 2 -308 0 -338 -11z"/>
<path d="M2986 3361 c-3 -5 1 -11 9 -15 8 -3 15 -1 15 4 0 13 -18 22 -24 11z"/>
<path d="M3020 3351 c0 -18 -27 -37 -38 -26 -3 3 1 5 9 6 8 0 3 5 -10 10 -20
8 -29 6 -45 -11 -16 -15 -17 -20 -6 -21 8 -1 4 -4 -10 -8 -17 -5 -24 -13 -22
-25 2 -11 -1 -15 -7 -11 -6 3 -12 -2 -12 -12 -1 -10 -3 -30 -5 -46 -3 -29 19
-81 29 -70 4 3 7 -4 7 -17 0 -13 3 -20 7 -17 3 4 12 -1 20 -11 14 -16 14 -16
9 1 -5 14 -2 16 13 8 10 -6 20 -9 22 -8 2 1 -1 -3 -8 -9 -9 -8 -4 -13 22 -21
20 -6 35 -7 35 -2 0 5 5 9 11 9 5 0 8 -4 4 -10 -3 -5 7 -5 25 1 16 6 32 15 35
19 9 15 -7 41 -22 36 -8 -3 -11 -1 -8 4 3 6 -3 10 -14 10 -11 0 -22 4 -25 9
-3 4 7 6 22 3 24 -5 26 -4 13 12 -8 10 -22 14 -35 11 -18 -4 -18 -3 2 7 23 12
37 4 41 -24 2 -10 47 -58 55 -58 3 0 6 5 6 12 0 6 7 19 15 28 18 20 28 60 15
60 -4 0 -10 -7 -14 -15 -3 -8 -11 -15 -18 -14 -10 0 -10 2 0 6 6 2 12 9 12 14
0 6 -4 8 -9 4 -14 -8 -20 7 -10 30 5 14 8 15 8 5 1 -9 10 -16 20 -17 17 -1 19
4 16 39 -1 24 -9 46 -19 53 -8 7 -13 14 -11 17 3 3 -2 11 -12 19 -11 9 -14 10
-9 2 5 -9 2 -11 -8 -7 -9 3 -13 10 -10 15 3 5 -4 9 -15 9 -11 0 -23 5 -26 10
-11 18 -45 11 -45 -9z m34 1 c3 -5 -1 -9 -9 -9 -8 0 -15 4 -15 9 0 4 4 8 9 8
6 0 12 -4 15 -8z m-84 -32 c0 -5 -2 -10 -4 -10 -3 0 -8 5 -11 10 -3 6 -1 10 4
10 6 0 11 -4 11 -10z m150 -35 c-7 -8 -10 -21 -7 -28 3 -8 -1 -14 -9 -14 -7 0
-11 4 -8 9 3 4 -3 9 -13 9 -17 1 -17 2 0 6 11 3 16 11 13 18 -3 9 0 12 10 8 7
-3 14 1 14 8 0 7 3 9 6 6 4 -4 1 -13 -6 -22z m-185 -21 c9 -15 12 -23 6 -20
-11 7 -35 46 -28 46 3 0 12 -12 22 -26z m118 19 c3 -5 -6 -9 -20 -10 -19 -1
-22 1 -12 8 17 11 26 11 32 2z m102 -23 c3 -6 -1 -7 -9 -4 -18 7 -21 14 -7 14
6 0 13 -4 16 -10z m-181 -17 c-5 -17 -5 -17 9 0 14 16 15 16 21 1 6 -16 8 -15
21 2 8 10 15 14 15 7 0 -6 -5 -15 -10 -18 -6 -4 -8 -10 -5 -15 6 -9 -14 -8
-30 1 -5 4 -18 5 -27 4 -15 -3 -16 0 -8 16 13 24 21 25 14 2z m106 -4 c0 -4
-10 -13 -22 -19 -21 -10 -21 -10 -6 3 14 11 15 16 5 26 -9 10 -8 11 6 6 9 -4
17 -11 17 -16z m90 -9 c0 -5 -2 -10 -4 -10 -3 0 -8 5 -11 10 -3 6 -1 10 4 10
6 0 11 -4 11 -10z m-226 -16 c3 -8 2 -12 -4 -9 -6 3 -10 10 -10 16 0 14 7 11
14 -7z m40 -16 c-5 -8 -1 -9 12 -4 14 5 16 4 7 -5 -6 -6 -16 -8 -22 -5 -14 9
-14 26 0 26 5 0 7 -5 3 -12z m-64 -28 c0 -5 -7 -10 -16 -10 -8 0 -12 5 -9 10
3 6 10 10 16 10 5 0 9 -4 9 -10z m195 0 c3 -5 1 -10 -4 -10 -6 0 -11 5 -11 10
0 6 2 10 4 10 3 0 8 -4 11 -10z m-152 -7 c-7 -2 -19 -2 -25 0 -7 3 -2 5 12 5
14 0 19 -2 13 -5z m44 1 c-3 -3 -12 -4 -19 -1 -8 3 -5 6 6 6 11 1 17 -2 13 -5z
m-1 -29 c-1 -8 -5 -17 -9 -20 -4 -3 -5 -2 -2 2 3 3 -2 11 -11 17 -13 10 -13
12 4 13 12 1 19 -4 18 -12z m123 -19 c-3 -3 -11 5 -18 17 -13 21 -12 21 5 5
10 -10 16 -20 13 -22z m-108 -9 c-10 -9 -11 -8 -5 6 3 10 9 15 12 12 3 -3 0
-11 -7 -18z m42 -17 c3 -11 1 -18 -4 -14 -5 3 -9 12 -9 20 0 20 7 17 13 -6z
m-43 -10 c-8 -5 -19 -10 -25 -10 -5 0 -3 5 5 10 8 5 20 10 25 10 6 0 3 -5 -5
-10z"/>
</g>
</svg>
